<?xml version="1.0" encoding="UTF-8" standalone="no"?><!-- Generator: Gravit.io --><svg xmlns="http://www.w3.org/2000/svg" xmlns:xlink="http://www.w3.org/1999/xlink" style="isolation:isolate" viewBox="0 0 400 80" width="400pt" height="80pt"><defs><clipPath id="_clipPath_8tnYYS0vEtaRCsUxq8GLXncaM5y5LZil"><rect width="400" height="80"/></clipPath></defs><g clip-path="url(#_clipPath_8tnYYS0vEtaRCsUxq8GLXncaM5y5LZil)"><path d=" M 317.724 69.762 C 313.54 47.676 308.767 30.91 303.332 19.392 C 303.921 17.169 305.544 15.594 308.129 14.594 C 311.805 18.234 319.825 30.251 327.318 50.574 C 336.166 37.802 343.434 24.282 358.5 5 L 377.689 5 C 353.968 33.921 342.799 57.132 339.311 74.56 C 331.744 75.855 324.597 74.304 317.724 69.762 Z " fill="rgb(168,16,16)"/><g><g><path d=" M 164.044 43.368 L 164.044 60.444 L 156.9 60.444 L 156.9 45.149 L 156.9 45.149 Q 156.9 42.314 155.893 40.897 L 155.893 40.897 L 155.893 40.897 Q 154.886 39.48 152.684 39.48 L 152.684 39.48 L 152.684 39.48 Q 149.685 39.48 148.35 41.483 L 148.35 41.483 L 148.35 41.483 Q 147.015 43.485 147.015 48.123 L 147.015 48.123 L 147.015 60.444 L 139.871 60.444 L 139.871 34.256 L 145.329 34.256 L 146.289 37.606 L 146.687 37.606 L 146.687 37.606 Q 147.882 35.709 149.978 34.737 L 149.978 34.737 L 149.978 34.737 Q 152.075 33.765 154.745 33.765 L 154.745 33.765 L 154.745 33.765 Q 159.313 33.765 161.679 36.236 L 161.679 36.236 L 161.679 36.236 Q 164.044 38.707 164.044 43.368 L 164.044 43.368 Z  M 178.291 47.304 L 178.291 47.304 L 178.291 47.304 Q 178.291 51.192 179.567 53.183 L 179.567 53.183 L 179.567 53.183 Q 180.844 55.174 183.725 55.174 L 183.725 55.174 L 183.725 55.174 Q 186.583 55.174 187.836 53.195 L 187.836 53.195 L 187.836 53.195 Q 189.089 51.215 189.089 47.304 L 189.089 47.304 L 189.089 47.304 Q 189.089 43.415 187.824 41.471 L 187.824 41.471 L 187.824 41.471 Q 186.559 39.527 183.678 39.527 L 183.678 39.527 L 183.678 39.527 Q 180.821 39.527 179.556 41.459 L 179.556 41.459 L 179.556 41.459 Q 178.291 43.392 178.291 47.304 Z  M 196.397 47.304 L 196.397 47.304 L 196.397 47.304 Q 196.397 53.698 193.024 57.306 L 193.024 57.306 L 193.024 57.306 Q 189.651 60.913 183.631 60.913 L 183.631 60.913 L 183.631 60.913 Q 179.86 60.913 176.979 59.261 L 176.979 59.261 L 176.979 59.261 Q 174.098 57.61 172.552 54.518 L 172.552 54.518 L 172.552 54.518 Q 171.006 51.426 171.006 47.304 L 171.006 47.304 L 171.006 47.304 Q 171.006 40.885 174.356 37.325 L 174.356 37.325 L 174.356 37.325 Q 177.705 33.765 183.772 33.765 L 183.772 33.765 L 183.772 33.765 Q 187.543 33.765 190.424 35.404 L 190.424 35.404 L 190.424 35.404 Q 193.305 37.044 194.851 40.112 L 194.851 40.112 L 194.851 40.112 Q 196.397 43.181 196.397 47.304 Z  M 226.947 47.304 L 226.947 60.444 L 219.803 60.444 L 219.803 45.149 L 219.803 45.149 Q 219.803 42.314 218.854 40.897 L 218.854 40.897 L 218.854 40.897 Q 217.905 39.48 215.867 39.48 L 215.867 39.48 L 215.867 39.48 Q 213.127 39.48 211.885 41.494 L 211.885 41.494 L 211.885 41.494 Q 210.644 43.509 210.644 48.123 L 210.644 48.123 L 210.644 60.444 L 203.5 60.444 L 203.5 34.256 L 208.957 34.256 L 209.918 37.606 L 210.316 37.606 L 210.316 37.606 Q 211.37 35.802 213.361 34.783 L 213.361 34.783 L 213.361 34.783 Q 215.352 33.765 217.929 33.765 L 217.929 33.765 L 217.929 33.765 Q 223.808 33.765 225.893 37.606 L 225.893 37.606 L 226.525 37.606 L 226.525 37.606 Q 227.579 35.779 229.629 34.772 L 229.629 34.772 L 229.629 34.772 Q 231.678 33.765 234.255 33.765 L 234.255 33.765 L 234.255 33.765 Q 238.706 33.765 240.989 36.048 L 240.989 36.048 L 240.989 36.048 Q 243.273 38.332 243.273 43.368 L 243.273 43.368 L 243.273 60.444 L 236.106 60.444 L 236.106 45.149 L 236.106 45.149 Q 236.106 42.314 235.157 40.897 L 235.157 40.897 L 235.157 40.897 Q 234.208 39.48 232.17 39.48 L 232.17 39.48 L 232.17 39.48 Q 229.547 39.48 228.247 41.354 L 228.247 41.354 L 228.247 41.354 Q 226.947 43.228 226.947 47.304 L 226.947 47.304 Z  M 273.425 60.444 L 268.435 60.444 L 267.053 56.884 L 266.866 56.884 L 266.866 56.884 Q 265.062 59.156 263.153 60.034 L 263.153 60.034 L 263.153 60.034 Q 261.244 60.913 258.176 60.913 L 258.176 60.913 L 258.176 60.913 Q 254.404 60.913 252.238 58.758 L 252.238 58.758 L 252.238 58.758 Q 250.071 56.603 250.071 52.621 L 250.071 52.621 L 250.071 52.621 Q 250.071 48.451 252.987 46.472 L 252.987 46.472 L 252.987 46.472 Q 255.903 44.493 261.783 44.282 L 261.783 44.282 L 266.327 44.141 L 266.327 42.994 L 266.327 42.994 Q 266.327 39.012 262.251 39.012 L 262.251 39.012 L 262.251 39.012 Q 259.113 39.012 254.873 40.909 L 254.873 40.909 L 252.507 36.084 L 252.507 36.084 Q 257.028 33.718 262.532 33.718 L 262.532 33.718 L 262.532 33.718 Q 267.803 33.718 270.614 36.013 L 270.614 36.013 L 270.614 36.013 Q 273.425 38.309 273.425 42.994 L 273.425 42.994 L 273.425 60.444 Z  M 266.327 50.466 L 266.327 48.311 L 263.563 48.404 L 263.563 48.404 Q 260.448 48.498 258.925 49.529 L 258.925 49.529 L 258.925 49.529 Q 257.403 50.559 257.403 52.668 L 257.403 52.668 L 257.403 52.668 Q 257.403 55.689 260.869 55.689 L 260.869 55.689 L 260.869 55.689 Q 263.352 55.689 264.84 54.26 L 264.84 54.26 L 264.84 54.26 Q 266.327 52.832 266.327 50.466 L 266.327 50.466 Z " fill="rgb(0,0,0)"/><path d=" M 45.665 60.444 L 40.675 60.444 L 39.293 56.884 L 39.106 56.884 L 39.106 56.884 Q 37.302 59.156 35.393 60.034 L 35.393 60.034 L 35.393 60.034 Q 33.484 60.913 30.416 60.913 L 30.416 60.913 L 30.416 60.913 Q 26.644 60.913 24.478 58.758 L 24.478 58.758 L 24.478 58.758 Q 22.311 56.603 22.311 52.621 L 22.311 52.621 L 22.311 52.621 Q 22.311 48.451 25.227 46.472 L 25.227 46.472 L 25.227 46.472 Q 28.144 44.493 34.023 44.282 L 34.023 44.282 L 38.567 44.141 L 38.567 42.994 L 38.567 42.994 Q 38.567 39.012 34.491 39.012 L 34.491 39.012 L 34.491 39.012 Q 31.353 39.012 27.113 40.909 L 27.113 40.909 L 24.747 36.084 L 24.747 36.084 Q 29.268 33.718 34.773 33.718 L 34.773 33.718 L 34.773 33.718 Q 40.043 33.718 42.854 36.013 L 42.854 36.013 L 42.854 36.013 Q 45.665 38.309 45.665 42.994 L 45.665 42.994 L 45.665 60.444 Z  M 38.567 50.466 L 38.567 48.311 L 35.803 48.404 L 35.803 48.404 Q 32.688 48.498 31.165 49.529 L 31.165 49.529 L 31.165 49.529 Q 29.643 50.559 29.643 52.668 L 29.643 52.668 L 29.643 52.668 Q 29.643 55.689 33.109 55.689 L 33.109 55.689 L 33.109 55.689 Q 35.592 55.689 37.08 54.26 L 37.08 54.26 L 37.08 54.26 Q 38.567 52.832 38.567 50.466 L 38.567 50.466 Z  M 78.252 60.444 L 72.771 60.444 L 71.81 57.095 L 71.436 57.095 L 71.436 57.095 Q 70.288 58.922 68.18 59.917 L 68.18 59.917 L 68.18 59.917 Q 66.072 60.913 63.378 60.913 L 63.378 60.913 L 63.378 60.913 Q 58.763 60.913 56.421 58.442 L 56.421 58.442 L 56.421 58.442 Q 54.079 55.97 54.079 51.332 L 54.079 51.332 L 54.079 34.256 L 61.223 34.256 L 61.223 49.552 L 61.223 49.552 Q 61.223 52.387 62.23 53.804 L 62.23 53.804 L 62.23 53.804 Q 63.237 55.221 65.439 55.221 L 65.439 55.221 L 65.439 55.221 Q 68.437 55.221 69.773 53.218 L 69.773 53.218 L 69.773 53.218 Q 71.108 51.215 71.108 46.577 L 71.108 46.577 L 71.108 34.256 L 78.252 34.256 L 78.252 60.444 Z  M 97.98 55.221 L 97.98 55.221 L 97.98 55.221 Q 99.853 55.221 102.477 54.401 L 102.477 54.401 L 102.477 59.718 L 102.477 59.718 Q 99.807 60.913 95.918 60.913 L 95.918 60.913 L 95.918 60.913 Q 91.632 60.913 89.676 58.746 L 89.676 58.746 L 89.676 58.746 Q 87.72 56.579 87.72 52.246 L 87.72 52.246 L 87.72 39.621 L 84.3 39.621 L 84.3 36.599 L 88.235 34.21 L 90.297 28.682 L 94.864 28.682 L 94.864 34.256 L 102.196 34.256 L 102.196 39.621 L 94.864 39.621 L 94.864 52.246 L 94.864 52.246 Q 94.864 53.769 95.719 54.495 L 95.719 54.495 L 95.719 54.495 Q 96.574 55.221 97.98 55.221 Z  M 114.662 47.304 L 114.662 47.304 L 114.662 47.304 Q 114.662 51.192 115.939 53.183 L 115.939 53.183 L 115.939 53.183 Q 117.215 55.174 120.096 55.174 L 120.096 55.174 L 120.096 55.174 Q 122.954 55.174 124.207 53.195 L 124.207 53.195 L 124.207 53.195 Q 125.46 51.215 125.46 47.304 L 125.46 47.304 L 125.46 47.304 Q 125.46 43.415 124.196 41.471 L 124.196 41.471 L 124.196 41.471 Q 122.931 39.527 120.05 39.527 L 120.05 39.527 L 120.05 39.527 Q 117.192 39.527 115.927 41.459 L 115.927 41.459 L 115.927 41.459 Q 114.662 43.392 114.662 47.304 Z  M 132.769 47.304 L 132.769 47.304 L 132.769 47.304 Q 132.769 53.698 129.396 57.306 L 129.396 57.306 L 129.396 57.306 Q 126.023 60.913 120.003 60.913 L 120.003 60.913 L 120.003 60.913 Q 116.231 60.913 113.35 59.261 L 113.35 59.261 L 113.35 59.261 Q 110.469 57.61 108.923 54.518 L 108.923 54.518 L 108.923 54.518 Q 107.377 51.426 107.377 47.304 L 107.377 47.304 L 107.377 47.304 Q 107.377 40.885 110.727 37.325 L 110.727 37.325 L 110.727 37.325 Q 114.076 33.765 120.143 33.765 L 120.143 33.765 L 120.143 33.765 Q 123.915 33.765 126.796 35.404 L 126.796 35.404 L 126.796 35.404 Q 129.677 37.044 131.223 40.112 L 131.223 40.112 L 131.223 40.112 Q 132.769 43.181 132.769 47.304 Z " fill="rgb(168,16,16)"/></g><path d=" M 298.535 45.968 L 287.315 45.968 L 287.315 43.626 L 298.535 43.626 L 298.535 45.968 Z " fill="rgb(168,16,16)"/></g></g></svg>